<?xml version="1.0" encoding="UTF-8" standalone="no"?>
<!-- Created with Inkscape (http://www.inkscape.org/) -->

<svg
   xmlns:dc="http://purl.org/dc/elements/1.1/"
   xmlns:cc="http://creativecommons.org/ns#"
   xmlns:rdf="http://www.w3.org/1999/02/22-rdf-syntax-ns#"
   xmlns:svg="http://www.w3.org/2000/svg"
   xmlns="http://www.w3.org/2000/svg"
   xmlns:sodipodi="http://sodipodi.sourceforge.net/DTD/sodipodi-0.dtd"
   xmlns:inkscape="http://www.inkscape.org/namespaces/inkscape"
   width="16"
   height="16"
   id="svg2"
   version="1.1"
   inkscape:version="0.91 r13725"
   sodipodi:docname="close_unfocused.svg">
  <defs
     id="defs4">
    <linearGradient
       id="linearGradient4557">
      <stop
         id="stop4559"
         offset="0"
         style="stop-color:#dedede;stop-opacity:1" />
      <stop
         id="stop4561"
         offset="1"
         style="stop-color:white;stop-opacity:1" />
    </linearGradient>
  </defs>
  <sodipodi:namedview
     id="base"
     pagecolor="#ffffff"
     bordercolor="#666666"
     borderopacity="1.0"
     inkscape:pageopacity="0.0"
     inkscape:pageshadow="2"
     inkscape:zoom="16"
     inkscape:cx="8.706506"
     inkscape:cy="4.6169098"
     inkscape:document-units="px"
     inkscape:current-layer="g4415"
     showgrid="true"
     fit-margin-top="0"
     fit-margin-left="0"
     fit-margin-right="0"
     fit-margin-bottom="0"
     inkscape:window-width="1366"
     inkscape:window-height="716"
     inkscape:window-x="0"
     inkscape:window-y="24"
     inkscape:window-maximized="1" />
  <metadata
     id="metadata7">
    <rdf:RDF>
      <cc:Work
         rdf:about="">
        <dc:format>image/svg+xml</dc:format>
        <dc:type
           rdf:resource="http://purl.org/dc/dcmitype/StillImage" />
        <dc:title></dc:title>
      </cc:Work>
    </rdf:RDF>
  </metadata>
  <g
     inkscape:label="Layer 1"
     inkscape:groupmode="layer"
     id="layer1"
     transform="translate(-671.14288,-648.57648)">
    <g
       transform="matrix(0.1265625,0,0,-0.1265625,672.07092,663.09636)"
       inkscape:label="ink_ext_XXXXXX"
       id="g4090">
      <g
         transform="scale(0.1,0.1)"
         id="g4092">
        <g
           transform="matrix(9.9999999,0,0,9.9999999,-4.0034923,0.11816995)"
           inkscape:label="ink_ext_XXXXXX"
           id="g4285">
          <g
             transform="scale(0.1,0.1)"
             id="g4287">
            <g
               transform="matrix(10,0,0,10,4.1388913,2.0175489)"
               inkscape:label="ink_ext_XXXXXX"
               id="g4413">
              <g
                 transform="scale(0.1,0.1)"
                 id="g4415">
                <path
                   style="color:black;display:inline;overflow:visible;visibility:visible;opacity:0.1;fill:black;fill-opacity:1;fill-rule:nonzero;stroke:none;stroke-width:2;marker:none;enable-background:accumulate"
                   d="m 558.63673,1066.1018 c 16.378,0 32.4406,-1.0746 48.4568,-2.4692 a 553.08447,553.08447 0 0 1 -48.4568,2.4692 z m 0,0 a 553.08447,553.08447 0 0 1 -56.1728,-2.9321 c 18.4947,1.8679 37.1856,2.9321 56.1728,2.9321 z m 74.5371,-5.7099 c 9.2045,-1.2444 18.4141,-2.4752 27.4691,-4.1667 a 553.08447,553.08447 0 0 1 -27.4691,4.1667 z m 60.0308,-11.4198 c 6.232,-1.5609 12.5267,-3.0135 18.6729,-4.7839 a 553.08447,553.08447 0 0 1 -18.6729,4.7839 z m 54.16669,-16.6666 c 5.66282,-2.0592 11.40054,-3.9357 16.97533,-6.1729 a 553.08447,553.08447 0 0 1 -16.97533,6.1729 z m 47.37652,-19.7531 c 6.89185,-3.264 13.79295,-6.4939 20.52472,-10.0309 a 553.08447,553.08447 0 0 1 -20.52472,10.0309 z M 558.63673,996.96595 c -268.4056,0 -483.950595,-215.54477 -483.950595,-483.95065 0,-268.40584 215.544995,-483.950646 483.950595,-483.950646 268.40574,0 483.95067,215.544806 483.95067,483.950646 0,268.40588 -215.54493,483.95065 -483.95067,483.95065 z m 284.25926,-10.1852 c 6.19227,-3.7239 12.48719,-7.309 18.51851,-11.2655 a 553.08447,553.08447 0 0 1 -18.51851,11.2655 z m -595.52466,-16.6667 a 553.08447,553.08447 0 0 1 -14.6605,-10.9568 c 4.9196,3.5999 9.6194,7.5175 14.6605,10.9568 z m 641.51237,-14.1975 c 5.76403,-4.3045 11.69643,-8.4421 17.28395,-12.963 a 553.08447,553.08447 0 0 1 -17.28395,12.963 z m -684.10497,-18.0556 a 553.08447,553.08447 0 0 1 -19.2901,-17.4382 c 6.4036,5.8675 12.6147,11.8738 19.2901,17.4382 z m 723.14813,-14.0432 c 6.42987,-5.783 12.98402,-11.3635 19.13584,-17.4383 a 553.08447,553.08447 0 0 1 -19.13584,17.4383 z m -762.80863,-22.3765 a 553.08447,553.08447 0 0 1 -15.2778,-16.821 c 5.0971,5.6036 9.9573,11.4312 15.2778,16.821 z m 804.62963,-19.2901 c 4.30909,-4.7957 8.82133,-9.407 12.963,-14.3519 a 553.08447,553.08447 0 0 1 -12.963,14.3519 z m -841.97533,-22.6852 a 553.08447,553.08447 0 0 1 -10.1852,-13.5803 c 3.414,4.5161 6.6374,9.1737 10.1852,13.5803 z m 880.09267,-24.5371 c 2.577,-3.5897 5.3778,-6.9948 7.8703,-10.6481 a 553.08447,553.08447 0 0 1 -7.8703,10.6481 z M 96.136735,815.79307 a 553.08447,553.08447 0 0 1 -11.2654,-18.51852 c 3.7239,6.19229 7.309,12.48716 11.2654,18.51852 z m -27.0062,-46.14197 a 553.08447,553.08447 0 0 1 -10.0308,-20.52469 c 3.264,6.89186 6.4939,13.7929 10.0308,20.52469 z m -23.6111,-50.92593 a 553.08447,553.08447 0 0 1 -6.1728,-16.97531 c 2.0592,5.66282 3.9356,11.40053 6.1728,16.97531 z m -18.0555,-52.46913 a 553.08447,553.08447 0 0 1 -4.784,-18.67284 c 1.561,6.232 3.0136,12.5267 4.784,18.67284 z m -12.0371,-51.23457 a 553.08447,553.08447 0 0 1 -4.1666,-27.31481 c 1.24,9.1532 2.4845,18.30953 4.1666,27.31481 z M 1108.7911,569.18814 c 1.8679,-18.49472 2.9321,-37.18563 2.9321,-56.17284 a 553.08447,553.08447 0 0 1 -2.9321,56.17284 z m 2.9321,-56.17284 c 0,-16.33352 -1.0821,-32.48301 -2.4692,-48.4568 a 553.08447,553.08447 0 0 1 2.4692,48.4568 z M 8.0194348,561.31777 a 553.08447,553.08447 0 0 1 -2.4691,-48.30247 c 0,16.326 1.0834,32.33586 2.4691,48.30247 z m -2.4691,-48.30247 a 553.08447,553.08447 0 0 1 2.9321,-56.01852 c -1.8479,18.39683 -2.9321,37.13478 -2.9321,56.01852 z M 1106.0133,438.01529 c -1.233,-9.076 -2.4989,-18.07567 -4.1667,-27.00616 a 553.08447,553.08447 0 0 1 4.1667,27.00616 z m -11.4198,-59.56789 c -1.5609,-6.23201 -3.0135,-12.52671 -4.7839,-18.67285 a 553.08447,553.08447 0 0 1 4.7839,18.67285 z m -16.6666,-54.16663 c -2.0592,-5.66282 -3.9357,-11.40054 -6.1728,-16.97533 a 553.08447,553.08447 0 0 1 6.1728,16.97533 z m -19.7531,-47.3766 c -3.2839,-6.9338 -6.4708,-13.90727 -10.0309,-20.67903 a 553.08447,553.08447 0 0 1 10.0309,20.67903 z m -24.537,-46.14194 c -4.2763,-7.17977 -8.3757,-14.48573 -12.963,-21.45067 a 553.08447,553.08447 0 0 1 12.963,21.45067 z M 101.53803,201.74984 a 553.08447,553.08447 0 0 1 7.8703,-10.6481 c -2.5771,3.58969 -5.3778,6.99481 -7.8703,10.6481 z M 1000.4577,181.2252 c -3.66945,-4.8783 -7.13153,-9.90941 -10.95676,-14.6605 a 553.08447,553.08447 0 0 1 10.95676,14.6605 z M 134.56263,158.23134 a 553.08447,553.08447 0 0 1 12.963,-14.35188 c -4.3091,4.79566 -8.8213,9.40698 -12.963,14.35188 z m 832.8704,-16.82101 c -5.09708,-5.60364 -9.95729,-11.43119 -15.27774,-16.82094 a 553.08447,553.08447 0 0 1 15.27774,16.82094 z m -797.2222,-21.91352 a 553.08447,553.08447 0 0 1 18.3642,-16.66671 c -6.1366,5.54011 -12.482,10.86009 -18.3642,16.66671 z m 757.56172,-17.59266 c -4.79566,-4.309086 -9.40697,-8.821246 -14.35188,-12.962916 a 553.08447,553.08447 0 0 1 14.35188,12.962916 z M 211.10583,82.922704 a 553.08447,553.08447 0 0 1 18.2099,-13.58025 c -6.0808,4.52133 -12.3247,8.81873 -18.2099,13.58025 z m 669.44452,-19.13584 c -3.58977,-2.57707 -6.99489,-5.37782 -10.64818,-7.87034 a 553.08447,553.08447 0 0 1 10.64818,7.87034 z M 256.01333,50.361004 a 553.08447,553.08447 0 0 1 15.895,-9.72223 c -5.2969,3.22299 -10.7169,6.32818 -15.895,9.72223 z m 47.3765,-27.77781 a 553.08447,553.08447 0 0 1 18.3642,-8.79629 c -6.1454,2.92227 -12.3462,5.65657 -18.3642,8.79629 z m 47.8395,-22.06792035 a 553.08447,553.08447 0 0 1 21.7593,-8.02465005 c -7.2912,2.60133 -14.613,5.12956 -21.7593,8.02465005 z m 53.858,-18.51850965 a 553.08447,553.08447 0 0 1 18.9815,-4.93828 c -6.341,1.58831 -12.7294,3.13324 -18.9815,4.93828 z m 51.8519,-12.34568 a 553.08447,553.08447 0 0 1 24.0741,-3.70371 c -8.052,1.13486 -16.1375,2.22602 -24.0741,3.70371 z m 54.9383,-7.40741 a 553.08447,553.08447 0 0 1 46.7592,-2.31483 c -15.8053,0 -31.2899,1.01523 -46.7592,2.31483 z"
                   id="path5328-1"
                   inkscape:connector-curvature="0" />
              </g>
            </g>
          </g>
        </g>
      </g>
    </g>
  </g>
</svg>
